<svg width="40" height="36" viewBox="0 0 40 36" fill="none" xmlns="http://www.w3.org/2000/svg">
<path fill-rule="evenodd" clip-rule="evenodd" d="M16.3636 3.6C12.347 3.6 9.09091 6.82355 9.09091 10.8C9.09091 14.7764 12.347 18 16.3636 18C20.3803 18 23.6364 14.7764 23.6364 10.8C23.6364 6.82355 20.3803 3.6 16.3636 3.6ZM22.9836 19.3849C25.5909 17.4114 27.2727 14.3001 27.2727 10.8C27.2727 4.83532 22.3886 0 16.3636 0C10.3387 0 5.45455 4.83532 5.45455 10.8C5.45455 14.3001 7.13638 17.4114 9.74365 19.3849C7.91552 20.1855 6.23364 21.3184 4.7928 22.7449C1.72402 25.783 0 29.9035 0 34.2C0 35.1941 0.814028 36 1.81818 36C2.82234 36 3.63636 35.1941 3.63636 34.2C3.63636 30.8583 4.97727 27.6534 7.3641 25.2905C9.75092 22.9275 12.9882 21.6 16.3636 21.6C19.7391 21.6 22.9764 22.9275 25.3632 25.2905C27.75 27.6534 29.0909 30.8583 29.0909 34.2C29.0909 35.1941 29.9049 36 30.9091 36C31.9132 36 32.7273 35.1941 32.7273 34.2C32.7273 29.9035 31.0033 25.783 27.9345 22.7449C26.4936 21.3184 24.8118 20.1855 22.9836 19.3849ZM28.5271 2.14177C29.0393 1.28673 30.1547 1.0047 31.0184 1.51182C32.5607 2.41743 33.8538 3.68546 34.7831 5.2037C35.7124 6.72193 36.2494 8.44355 36.3465 10.2162C36.4435 11.9888 36.0977 13.7578 35.3397 15.3666C34.8963 16.3075 34.32 17.1765 33.631 17.9491C37.0338 21.2306 40 26.6011 40 32.4C40 33.3941 39.186 34.2 38.1818 34.2C37.1777 34.2 36.3636 33.3941 36.3636 32.4C36.3636 26.9806 33.0655 21.8511 29.8182 19.44C29.3604 19.1001 29.091 18.5667 29.0909 18.0001C29.0909 17.4336 29.3602 16.9002 29.8179 16.5602C30.7742 15.8499 31.5388 14.9173 32.0442 13.8447C32.5496 12.7722 32.7801 11.5928 32.7154 10.4111C32.6507 9.22932 32.2927 8.08158 31.6732 7.06942C31.0536 6.05727 30.1916 5.21191 29.1634 4.60817C28.2997 4.10105 28.0148 2.9968 28.5271 2.14177Z" fill="#B6B6B6"/>
</svg>
