<svg width="40" height="40" viewBox="0 0 40 40" fill="none" xmlns="http://www.w3.org/2000/svg">
<path d="M34.2222 29C34.6753 29.0004 35.1112 29.1468 35.4407 29.4093C35.7701 29.6717 35.9684 30.0304 35.995 30.4121C36.0215 30.7938 35.8744 31.1696 35.5835 31.4627C35.2927 31.7559 34.8802 31.9443 34.4302 31.9895L34.2222 32H5.77778C5.32466 31.9996 4.88883 31.8532 4.55935 31.5907C4.22986 31.3283 4.03158 30.9696 4.00503 30.5879C3.97847 30.2062 4.12564 29.8304 4.41647 29.5373C4.7073 29.2441 5.11983 29.0557 5.56978 29.0105L5.77778 29H34.2222ZM34.2222 18.5C34.6937 18.5 35.1459 18.658 35.4793 18.9393C35.8127 19.2206 36 19.6022 36 20C36 20.3978 35.8127 20.7794 35.4793 21.0607C35.1459 21.342 34.6937 21.5 34.2222 21.5H5.77778C5.30628 21.5 4.8541 21.342 4.5207 21.0607C4.1873 20.7794 4 20.3978 4 20C4 19.6022 4.1873 19.2206 4.5207 18.9393C4.8541 18.658 5.30628 18.5 5.77778 18.5H34.2222ZM34.2222 8C34.6937 8 35.1459 8.15804 35.4793 8.43934C35.8127 8.72064 36 9.10218 36 9.5C36 9.89782 35.8127 10.2794 35.4793 10.5607C35.1459 10.842 34.6937 11 34.2222 11H5.77778C5.30628 11 4.8541 10.842 4.5207 10.5607C4.1873 10.2794 4 9.89782 4 9.5C4 9.10218 4.1873 8.72064 4.5207 8.43934C4.8541 8.15804 5.30628 8 5.77778 8H34.2222Z" fill="#B6B6B6"/>
</svg>
