<svg width="40" height="36" viewBox="0 0 40 36" fill="none" xmlns="http://www.w3.org/2000/svg">
<path d="M32 16C32 14.082 30.64 12.478 28.838 12.092C29.558 10.89 30 9.5 30 8C30 3.588 26.412 0 22 0C18.966 0 16.358 1.714 15 4.208C13.642 1.714 11.034 0 8 0C3.588 0 0 3.588 0 8C0 9.804 0.624 11.454 1.634 12.792C1.12918 13.1611 0.718247 13.6439 0.434401 14.2011C0.150554 14.7584 0.00174792 15.3746 0 16V32C0 34.206 1.794 36 4 36H28C30.206 36 32 34.206 32 32V26.724L40 30.724V16.724L32 20.724V16ZM22 4C24.206 4 26 5.794 26 8C26 10.206 24.206 12 22 12C19.794 12 18 10.206 18 8C18 5.794 19.794 4 22 4ZM8 4C10.206 4 12 5.794 12 8C12 10.206 10.206 12 8 12C5.794 12 4 10.206 4 8C4 5.794 5.794 4 8 4ZM4 32V16H28L28.004 32H4Z" fill="#B6B6B6"/>
</svg>
