<svg width="90" height="40" viewBox="0 0 90 40" fill="none" xmlns="http://www.w3.org/2000/svg">
<path fill-rule="evenodd" clip-rule="evenodd" d="M0.15625 12.504V18.7577H18.4492C20.5755 18.7577 23.292 16.7916 23.292 13.5392C23.292 12.2311 23.7923 11.3778 22.2548 9.64752L19.915 6.87512C18.5743 5.62438 20.0752 5.62438 21.2013 5.62438H28.9248V18.7577H35.05V5.62438H43.3053V0H16.5731C13.3207 0 11.7303 3.1229 11.8198 4.74886C11.9098 6.37483 12.2088 8.42051 14.9115 10.878C17.3769 13.1189 13.691 12.504 13.3207 12.504H0.15625ZM56.8494 0H46.9681L41.4287 18.7582H47.5935L48.5936 16.1316H55.0974L56.0629 18.7582H62.1016L56.8494 0ZM49.9699 11.6284L52.0961 4.74886L54.0978 11.6284H49.9699ZM81.6146 12.504C79.2382 12.504 79.2382 11.6284 79.2382 11.6284C81.2745 11.6284 83.0799 8.66176 83.0799 5.62438C83.0799 2.58701 80.1137 0 77.7363 0H64.4424V18.7582H71.1974V12.5044C71.1974 12.5044 74.0736 15.8815 75.5745 17.2573C77.0759 18.6331 77.2004 18.7582 79.2377 18.7582H89.8413V12.5044C89.8423 12.504 83.991 12.504 81.6146 12.504ZM75.4855 8.12636H71.1984V4.74886H75.4855C77.4511 4.74886 77.7912 8.12636 75.4855 8.12636ZM0.15625 21.1341H7.06697L8.81801 27.3888L10.444 21.1341H17.6988L19.5749 27.3888L21.4515 21.1341H27.455L21.9513 39.8967H16.448L14.0365 31.0154L11.3195 39.8967H5.69115L0.15625 21.1341ZM41.6379 21.2423H31.7565L26.2177 40H32.3819L33.3825 37.3739H39.8868L40.8523 40H46.8915L41.6379 21.2423ZM34.7588 32.8703L36.885 25.9907L38.8862 32.8703H34.7588ZM81.7392 26.7634C80.6145 26.7634 79.388 26.8949 80.7292 28.1451L83.0695 30.918C84.6065 32.6483 84.5818 33.3696 84.5818 34.6787C84.5818 37.9306 81.3645 39.8967 79.2382 39.8967L64.4587 39.996C62.4224 39.996 62.2978 39.8715 60.7965 38.4957C59.2961 37.1198 56.4189 33.7423 56.4189 33.7423V39.996H49.6649V21.2384H62.9588C65.3352 21.2384 68.3024 23.8259 68.3024 26.8628C68.3024 29.9006 66.497 32.8668 64.4597 32.8668C64.4597 32.8668 65.3555 33.7675 66.8564 33.7675C68.3577 33.7675 74.1369 33.7735 74.1369 33.7735C74.5067 33.7735 78.1921 34.3885 75.7272 32.1475C73.0245 29.69 72.7255 27.6453 72.6355 26.0194C72.5455 24.3934 73.9515 21.1346 77.2024 21.1346H89.8433V26.7639L81.7392 26.7634ZM60.7065 29.3642H56.4184V25.9867H60.7065C62.6726 25.9867 63.0122 29.3642 60.7065 29.3642Z" fill="#B6B6B6"/>
</svg>
