<svg width="40" height="40" viewBox="0 0 40 40" fill="none" xmlns="http://www.w3.org/2000/svg">
<path d="M39.1573 35.1183C39.6938 35.6548 39.9952 36.3825 39.9952 37.1413C39.9952 37.9001 39.6938 38.6278 39.1573 39.1644C38.6207 39.701 37.893 40.0024 37.1342 40.0024C36.3754 40.0024 35.6477 39.701 35.1111 39.1644L20 24.0485L4.88412 39.1596C4.34757 39.6962 3.61985 39.9976 2.86105 39.9976C2.10225 39.9976 1.37453 39.6962 0.837982 39.1596C0.301432 38.6231 7.99523e-09 37.8954 0 37.1366C-7.99523e-09 36.3778 0.301432 35.6501 0.837982 35.1135L15.9539 20.0024L0.842742 4.8865C0.306191 4.34995 0.00476026 3.62223 0.00476027 2.86343C0.00476028 2.10463 0.306191 1.37691 0.842742 0.840362C1.37929 0.303811 2.10701 0.00237969 2.86581 0.00237968C3.62461 0.00237967 4.35233 0.303811 4.88888 0.840362L20 15.9562L35.1159 0.837981C35.6524 0.301431 36.3802 -1.26416e-08 37.139 0C37.8978 1.26416e-08 38.6255 0.301431 39.162 0.837981C39.6986 1.37453 40 2.10225 40 2.86105C40 3.61985 39.6986 4.34757 39.162 4.88412L24.0461 20.0024L39.1573 35.1183Z" fill="#B6B6B6"/>
</svg>
